Coordinates
version=1
nRows=22
nColumns=24
inDegrees=yes

Units are S.I. units (second, meters, Newtons, ...)
Angles are in degrees.

endheader
time	pelvis_tilt	pelvis_list	pelvis_rotation	pelvis_tx	pelvis_ty	pelvis_tz	hip_flexion_r	hip_adduction_r	hip_rotation_r	knee_angle_r	ankle_angle_r	subtalar_angle_r	mtp_angle_r	hip_flexion_l	hip_adduction_l	hip_rotation_l	knee_angle_l	ankle_angle_l	subtalar_angle_l	mtp_angle_l	lumbar_extension	lumbar_bending	lumbar_rotation
      3.41500000	     -7.43112204	    -11.29189722	      1.80226042	     -1.58239091	     -0.02576313	     -0.30375536	     14.93044169	     15.95145447	     -2.15497878	    -19.47713659	      5.74426970	      2.51732218	     13.54744601	     25.18249805	    -16.41849650	     -4.34286395	    -64.09564061	     -3.14386251	      6.37994362	      8.23099997	     10.84723647	     10.28241704	     -9.73813243
      3.42000000	     -7.34585485	    -10.96605224	      1.76564173	     -1.57638124	     -0.02462884	     -0.30340263	     14.08807088	     15.71917833	     -1.81430307	    -18.98000565	      5.72785379	      2.31769609	     13.32162843	     25.76012715	    -16.02922961	     -4.56628175	    -63.44054466	     -2.59237550	      6.53061722	      8.20368005	     10.70495061	      9.97635773	     -9.45347348
      3.42500000	     -7.25671461	    -10.65296450	      1.72065149	     -1.57038813	     -0.02355442	     -0.30304667	     13.23728350	     15.50035377	     -1.43859218	    -18.47082536	      5.71616642	      2.10619534	     13.07731180	     26.31646610	    -15.65881401	     -4.80220850	    -62.72428000	     -2.05182577	      6.73559385	      8.15616767	     10.55808290	      9.68729236	     -9.16256142
      3.43000000	     -7.13691414	    -10.36791213	      1.65978060	     -1.56440271	     -0.02251813	     -0.30267584	     12.33345034	     15.31909548	     -0.96831954	    -17.92681035	      5.70047287	      1.85082404	     12.75384740	     26.82582344	    -15.33537435	     -5.06362838	    -61.96218842	     -1.52612350	      6.99145530	      8.01170913	     10.37491477	      9.43715806	     -8.83305268
      3.43500000	     -7.06147167	    -10.07210220	      1.59247666	     -1.55846667	     -0.02157844	     -0.30232801	     11.51729921	     15.10816746	     -0.60927398	    -17.44264006	      5.67502882	      1.62917235	     12.44644963	     27.35668244	    -14.98822831	     -5.32182410	    -61.12302433	     -0.98479645	      7.27572036	      7.86419189	     10.23579131	      9.17583654	     -8.52669041
      3.44000000	     -6.98762790	     -9.80004395	      1.52254326	     -1.55254866	     -0.02072343	     -0.30199847	     10.69776320	     14.91595890	     -0.22612811	    -16.94277553	      5.66796298	      1.42549837	     12.13494624	     27.87951238	    -14.66019319	     -5.56047969	    -60.23687817	     -0.46405549	      7.56419646	      7.64902066	     10.09664740	      8.93983975	     -8.21938137
      3.44500000	     -6.92318785	     -9.53590557	      1.43940640	     -1.54664478	     -0.01994277	     -0.30168877	      9.90252231	     14.72272177	      0.12359703	    -16.46427859	      5.65252429	      1.23678096	     11.83434064	     28.38611058	    -14.34106058	     -5.80540999	    -59.28719968	      0.05883500	      7.85301200	      7.38094410	      9.96342730	      8.71978488	     -7.90507262
      3.45000000	     -6.87034818	     -9.27538365	      1.33876720	     -1.54077345	     -0.01923000	     -0.30136597	      9.13957615	     14.52543406	      0.41894412	    -16.01207779	      5.61961054	      1.07612838	     11.57387993	     28.87632274	    -14.02981813	     -6.05892630	    -58.26738707	      0.56436599	      8.12214704	      7.08679809	      9.83939214	      8.50357708	     -7.58593423
      3.45500000	     -6.80810396	     -9.04359050	      1.24495046	     -1.53490646	     -0.01860873	     -0.30109185	      8.35543418	     14.35041824	      0.75803477	    -15.53628668	      5.60967175	      0.91706998	     11.31931305	     29.34923542	    -13.74043955	     -6.28464024	    -57.21360035	      1.07367629	      8.37275031	      6.67016364	      9.70290787	      8.32287212	     -7.25510164
      3.46000000	     -6.75369337	     -8.85647198	      1.16913412	     -1.52902933	     -0.01809422	     -0.30086454	      7.58360600	     14.21517594	      1.07460389	    -15.05971818	      5.58272323	      0.72417126	     10.99456086	     29.82691648	    -13.48709974	     -6.47277799	    -56.13847148	      1.69636652	      8.68274314	      5.94559697	      9.58648700	      8.19071858	     -6.99486097
      3.46500000	     -6.75609959	     -8.61155774	      1.01576895	     -1.52321772	     -0.01763048	     -0.30059063	      6.92017587	     14.00215512	      1.29061204	    -14.66730187	      5.58977331	      0.71352043	     10.89710224	     30.29484685	    -13.19740644	     -6.73656137	    -54.92648005	      2.08030259	      8.79172131	      5.62899920	      9.50631310	      8.01409824	     -6.62001254
      3.47000000	     -6.65675523	     -8.41807778	      0.89140801	     -1.51741664	     -0.01718796	     -0.30040049	      6.11155111	     13.84278682	      1.64302876	    -14.20782313	      5.57671750	      0.60135077	     10.74186701	     30.65020205	    -12.94513881	     -6.93799184	    -53.70960046	      2.63382902	      8.96895434	      4.92678021	      9.31118273	      7.89934956	     -6.23967763
      3.47500000	     -6.61490295	     -8.25004122	      0.77693060	     -1.51158340	     -0.01686922	     -0.30018526	      5.38573206	     13.70341304	      1.88606486	    -13.77471352	      5.53770752	      0.49099329	     10.58734675	     31.05730101	    -12.72671791	     -7.13291792	    -52.46813026	      3.27381931	      9.25245263	      3.93133796	      9.19372986	      7.79445825	     -5.94750726
      3.48000000	     -6.58519181	     -8.05651930	      0.62223536	     -1.50580747	     -0.01659356	     -0.29999603	      4.69389270	     13.52284407	      2.12481416	    -13.37949895	      5.54489881	      0.48834706	     10.53318143	     31.42761791	    -12.48649117	     -7.35245982	    -51.12512107	      3.77146189	      9.38590341	      3.17617176	      9.07027666	      7.68250429	     -5.57780979
      3.48500000	     -6.59546383	     -7.85720314	      0.44085911	     -1.50010958	     -0.01638910	     -0.29983903	      4.07507491	     13.32603876	      2.36001832	    -13.03086196	      5.55558871	      0.51521387	     10.51341480	     31.80689788	    -12.23181396	     -7.55676666	    -49.69493683	      4.14046394	      9.38386411	      2.58277008	      8.97206903	      7.57863400	     -5.16172535
      3.49000000	     -6.54892002	     -7.66520631	      0.26710681	     -1.49437245	     -0.01618701	     -0.29967844	      3.38471071	     13.13350759	      2.60214799	    -12.66378021	      5.55944046	      0.52884063	     10.50377985	     32.09216870	    -11.99895365	     -7.77046333	    -48.22455949	      4.62002221	      9.51990237	      1.76912494	      8.81770316	      7.47520975	     -4.76731722
      3.49500000	     -6.53399102	     -7.48182272	      0.08739421	     -1.48866059	     -0.01607217	     -0.29954095	      2.74757557	     12.94169633	      2.81479982	    -12.32269604	      5.57116568	      0.56730552	     10.51590303	     32.38843721	    -11.77312257	     -7.97374007	    -46.70661585	      5.10131356	      9.67552941	      0.89180949	      8.69350919	      7.38408240	     -4.37828009
      3.50000000	     -6.49060661	     -7.34717951	     -0.03358091	     -1.48290730	     -0.01603937	     -0.29946764	      2.07732108	     12.79404679	      2.95075660	    -11.96257670	      5.56221677	      0.59636147	     10.56093951	     32.66204212	    -11.57982432	     -8.11933372	    -45.21171892	      5.81926037	     10.07429672	     -0.46971923	      8.55332502	      7.32920749	     -4.08520462
      3.50500000	     -6.58943165	     -7.16225330	     -0.23990048	     -1.47723487	     -0.01611593	     -0.29934093	      1.60939221	     12.58920490	      3.11694950	    -11.69896568	      5.61852843	      0.70355322	     10.59387825	     33.01605734	    -11.35289494	     -8.31449887	    -43.53823121	      6.06731089	     10.15589764	     -0.88859471	      8.54924990	      7.24021321	     -3.68966285
      3.51000000	     -6.50837582	     -6.98078466	     -0.45832721	     -1.47163551	     -0.01606477	     -0.29927704	      0.95256889	     12.37388900	      3.31124988	    -11.43880663	      5.67663331	      0.85650929	     10.68107642	     33.13475923	    -11.13445860	     -8.48213413	    -41.84322011	      6.54266107	     10.45329952	     -1.72973636	      8.31709887	      7.17630887	     -3.21320208
      3.51500000	     -6.51300571	     -6.80612769	     -0.65458851	     -1.46595826	     -0.01614837	     -0.29919661	      0.40014114	     12.16552392	      3.44657038	    -11.19785700	      5.73227534	      1.00322644	     10.78903020	     33.32687935	    -10.91881794	     -8.64388359	    -40.11182078	      7.00419012	     10.82414176	     -2.61448597	      8.20525966	      7.09481845	     -2.82194421
      3.52000000	     -6.52136019	     -6.64462406	     -0.84140945	     -1.46029877	     -0.01628709	     -0.29918274	     -0.13343456	     11.96138954	      3.54763107	    -10.97544134	      5.78780064	      1.17986548	     10.91151455	     33.50341105	    -10.70985629	     -8.78851904	    -38.34292990	      7.44516650	     11.27296066	     -3.41597659	      8.09117893	      7.03758802	     -2.43520441
